<?xml version="1.0" encoding="UTF-8"?>
<svg id="Layer_1" data-name="Layer 1" xmlns="http://www.w3.org/2000/svg" viewBox="0 0 1024 676.04">
  <defs>
    <style>
      .cls-1 {
        fill: #231f20;
      }
    </style>
  </defs>
  <g>
    <path class="cls-1" d="M191.05,37.72h7.42l42.54,62.68,42.54-62.68h7.42v105.98h-7.87V51.65l-41.94,61.01h-.61l-41.94-61.01v92.05h-7.57V37.72Z"/>
    <path class="cls-1" d="M324.88,36.2h9.24v10.14h-9.24v-10.14ZM325.79,66.48h7.42v77.21h-7.42v-77.21Z"/>
    <path class="cls-1" d="M366.37,66.48h7.42v14.38c2.62-4.54,6.16-8.38,10.6-11.51,4.44-3.13,10.19-4.69,17.26-4.69,4.84,0,9.18.78,13.02,2.35,3.83,1.57,7.09,3.76,9.76,6.59,2.67,2.83,4.69,6.18,6.06,10.07,1.36,3.89,2.04,8.15,2.04,12.79v47.24h-7.42v-45.87c0-7.97-2.12-14.36-6.36-19.15-4.24-4.79-10.29-7.19-18.17-7.19-3.84,0-7.37.68-10.6,2.04-3.23,1.36-6.06,3.25-8.48,5.68-2.42,2.42-4.31,5.33-5.68,8.71-1.36,3.38-2.04,7.09-2.04,11.13v44.66h-7.42v-77.21Z"/>
    <path class="cls-1" d="M463.26,66.48h7.42v14.38c2.62-4.54,6.16-8.38,10.6-11.51,4.44-3.13,10.19-4.69,17.26-4.69,4.84,0,9.18.78,13.02,2.35,3.83,1.57,7.09,3.76,9.76,6.59,2.67,2.83,4.7,6.18,6.06,10.07,1.36,3.89,2.04,8.15,2.04,12.79v47.24h-7.42v-45.87c0-7.97-2.12-14.36-6.36-19.15-4.24-4.79-10.3-7.19-18.17-7.19-3.84,0-7.37.68-10.6,2.04-3.23,1.36-6.06,3.25-8.48,5.68-2.42,2.42-4.31,5.33-5.68,8.71-1.36,3.38-2.04,7.09-2.04,11.13v44.66h-7.42v-77.21Z"/>
    <path class="cls-1" d="M592.79,145.51c-5.06,0-9.89-.96-14.49-2.88-4.6-1.92-8.65-4.64-12.14-8.18-3.49-3.53-6.25-7.77-8.27-12.72-2.03-4.94-3.04-10.45-3.04-16.5v-.3c0-5.55.93-10.77,2.8-15.67,1.87-4.89,4.44-9.16,7.72-12.79,3.28-3.63,7.14-6.51,11.58-8.63s9.29-3.18,14.54-3.18,10.34,1.04,14.69,3.1c4.34,2.07,8.05,4.92,11.13,8.55,3.08,3.63,5.45,7.9,7.12,12.79,1.66,4.9,2.5,10.22,2.5,15.97v1.59c0,.35-.05.83-.15,1.44h-64.04c.3,4.82,1.37,9.09,3.19,12.81,1.82,3.72,4.1,6.88,6.83,9.49,2.73,2.61,5.85,4.6,9.34,5.95,3.49,1.36,7.16,2.03,11,2.03,6.07,0,11.21-1.16,15.41-3.48,4.2-2.32,7.92-5.2,11.16-8.63l5.15,4.54c-3.94,4.24-8.41,7.75-13.42,10.52s-11.2,4.16-18.59,4.16ZM619.05,101.46c-.3-3.94-1.09-7.7-2.35-11.28-1.27-3.58-3.04-6.76-5.31-9.54-2.28-2.77-5.09-5-8.43-6.66s-7.24-2.5-11.69-2.5c-3.85,0-7.44.76-10.78,2.27s-6.25,3.61-8.73,6.28c-2.48,2.68-4.53,5.85-6.15,9.54-1.62,3.69-2.58,7.65-2.88,11.88h56.32Z"/>
    <path class="cls-1" d="M677.49,145.21c-5.65,0-11.3-1.06-16.96-3.17-5.65-2.12-10.55-4.84-14.69-8.19l4.39-5.9c4.24,3.23,8.68,5.73,13.32,7.49,4.64,1.77,9.44,2.65,14.38,2.65,5.25,0,9.66-1.31,13.25-3.93,3.58-2.62,5.38-6.2,5.38-10.73v-.3c0-2.21-.55-4.13-1.66-5.74-1.11-1.61-2.63-3.02-4.54-4.23-1.92-1.21-4.09-2.22-6.51-3.02s-5-1.61-7.72-2.42c-3.13-.91-6.28-1.86-9.46-2.87-3.18-1.01-6.03-2.29-8.55-3.85-2.52-1.56-4.57-3.5-6.13-5.82-1.57-2.32-2.35-5.19-2.35-8.61v-.3c0-3.12.63-5.97,1.89-8.54,1.26-2.57,3-4.81,5.22-6.72,2.22-1.91,4.89-3.4,8.03-4.46,3.13-1.06,6.56-1.59,10.29-1.59,4.64,0,9.41.77,14.31,2.32,4.89,1.55,9.26,3.65,13.1,6.31l-3.94,6.21c-3.54-2.32-7.34-4.19-11.43-5.6-4.09-1.41-8.2-2.12-12.34-2.12-5.35,0-9.62,1.28-12.79,3.85-3.18,2.57-4.77,5.77-4.77,9.59v.3c0,2.11.61,3.95,1.82,5.51,1.21,1.56,2.8,2.9,4.77,4.01,1.97,1.11,4.26,2.09,6.89,2.94,2.62.86,5.3,1.69,8.02,2.49,3.13.91,6.21,1.89,9.24,2.95,3.03,1.06,5.75,2.42,8.18,4.08,2.42,1.66,4.36,3.65,5.83,5.97,1.46,2.32,2.2,5.19,2.2,8.61v.3c0,3.43-.68,6.52-2.04,9.29-1.36,2.77-3.26,5.14-5.68,7.1-2.42,1.96-5.25,3.48-8.48,4.53-3.23,1.05-6.71,1.58-10.45,1.58Z"/>
    <path class="cls-1" d="M765.91,145.51c-5.75,0-11.03-1.09-15.82-3.26-4.79-2.17-8.96-5.07-12.49-8.71-3.54-3.63-6.28-7.87-8.25-12.72-1.97-4.84-2.95-9.99-2.95-15.44v-.3c0-5.45.98-10.6,2.95-15.44,1.97-4.84,4.74-9.13,8.33-12.87,3.58-3.73,7.8-6.69,12.64-8.86,4.85-2.17,10.14-3.25,15.9-3.25s11.03,1.09,15.82,3.25c4.79,2.17,8.96,5.07,12.49,8.71,3.53,3.63,6.28,7.87,8.25,12.72s2.95,9.99,2.95,15.44v.3c0,5.45-.98,10.6-2.95,15.44s-4.75,9.14-8.33,12.87c-3.58,3.74-7.8,6.69-12.64,8.86-4.85,2.17-10.14,3.26-15.9,3.26ZM766.21,138.4c4.56,0,8.8-.88,12.7-2.64,3.9-1.76,7.25-4.12,10.04-7.08,2.79-2.96,4.97-6.46,6.54-10.47,1.57-4.02,2.36-8.29,2.36-12.81v-.3c0-4.62-.81-8.97-2.44-13.04s-3.88-7.61-6.77-10.62-6.29-5.38-10.19-7.08c-3.91-1.71-8.09-2.56-12.55-2.56s-8.8.88-12.71,2.64c-3.9,1.76-7.25,4.12-10.04,7.08-2.79,2.96-4.97,6.46-6.54,10.48s-2.36,8.29-2.36,12.81v.3c0,4.62.81,8.97,2.43,13.04s3.88,7.61,6.77,10.63c2.89,3.01,6.29,5.38,10.19,7.08s8.09,2.56,12.55,2.56Z"/>
    <path class="cls-1" d="M858.26,145.06c-3.03,0-5.86-.4-8.48-1.21-2.63-.81-4.92-2.09-6.89-3.86-1.97-1.76-3.51-3.99-4.62-6.66-1.11-2.67-1.66-5.83-1.66-9.46v-50.57h-11.2v-6.81h11.2v-24.68h7.42v24.68h27.1v6.81h-27.1v49.69c0,5.54,1.44,9.42,4.31,11.63,2.88,2.21,6.59,3.32,11.13,3.32,1.92,0,3.73-.19,5.45-.57,1.72-.38,3.68-1.05,5.91-2v6.96c-2.02.91-4.01,1.59-5.98,2.04-1.97.45-4.16.68-6.59.68Z"/>
    <path class="cls-1" d="M920.48,145.51c-3.63,0-7.22-.51-10.75-1.51-3.54-1.01-6.71-2.52-9.54-4.54-2.83-2.02-5.12-4.54-6.89-7.57-1.77-3.03-2.65-6.56-2.65-10.6v-.3c0-4.04.83-7.62,2.5-10.75,1.66-3.13,3.96-5.75,6.89-7.87,2.93-2.12,6.46-3.73,10.6-4.84,4.14-1.11,8.73-1.67,13.78-1.67,5.45,0,10.14.3,14.08.91,3.94.61,7.77,1.41,11.51,2.42v-3.31c0-7.83-2.25-13.7-6.74-17.61-4.49-3.91-10.73-5.87-18.7-5.87-4.74,0-9.08.58-13.02,1.74-3.94,1.16-7.67,2.65-11.2,4.47l-2.73-6.52c4.24-2.06,8.53-3.71,12.87-4.95,4.34-1.24,9.18-1.86,14.54-1.86,10.6,0,18.72,2.83,24.38,8.48,5.25,5.25,7.87,12.52,7.87,21.8v48.15h-7.27v-12.87c-1.31,1.82-2.9,3.61-4.77,5.38-1.87,1.77-4.01,3.33-6.43,4.69-2.42,1.36-5.17,2.47-8.25,3.33-3.08.86-6.43,1.29-10.07,1.29ZM920.94,138.4c3.94,0,7.67-.58,11.2-1.73,3.53-1.15,6.64-2.76,9.31-4.82s4.79-4.55,6.36-7.46c1.56-2.91,2.35-6.13,2.35-9.65v-8.74c-3.23-.8-7.02-1.58-11.36-2.34-4.34-.75-9.29-1.13-14.84-1.13-8.18,0-14.46,1.63-18.85,4.9-4.39,3.27-6.59,7.61-6.59,13.04v.3c0,2.81.61,5.3,1.82,7.46,1.21,2.16,2.85,4,4.92,5.5,2.07,1.51,4.47,2.66,7.19,3.47s5.55,1.21,8.48,1.21Z"/>
  </g>
  <g>
    <path class="cls-1" d="M538.21,201.74h48.45c13.42,0,23.72,3.58,30.88,10.75,6.06,6.06,9.08,14.13,9.08,24.22v.3c0,8.58-2.1,15.57-6.28,20.97-4.19,5.4-9.67,9.36-16.43,11.88l25.89,37.85h-27.25l-22.71-33.91h-18.32v33.91h-23.32v-105.98ZM585.14,253.21c5.75,0,10.17-1.36,13.25-4.09,3.08-2.73,4.62-6.36,4.62-10.9v-.3c0-5.05-1.62-8.83-4.84-11.35-3.23-2.52-7.72-3.79-13.47-3.79h-23.16v30.43h23.62Z"/>
    <path class="cls-1" d="M687.79,309.53c-6.06,0-11.68-1.01-16.88-3.03-5.2-2.02-9.69-4.89-13.47-8.63-3.79-3.73-6.74-8.15-8.86-13.25-2.12-5.1-3.18-10.77-3.18-17.03v-.3c0-5.75.98-11.2,2.95-16.35s4.72-9.64,8.25-13.47c3.53-3.83,7.74-6.86,12.64-9.08,4.89-2.22,10.32-3.33,16.28-3.33,6.76,0,12.62,1.21,17.56,3.63s9.06,5.68,12.34,9.77c3.28,4.09,5.7,8.78,7.27,14.08,1.56,5.3,2.35,10.82,2.35,16.58,0,.91-.03,1.87-.07,2.88-.05,1.01-.13,2.07-.23,3.18h-56.47c1.11,5.25,3.41,9.21,6.89,11.88,3.48,2.68,7.8,4.01,12.94,4.01,3.84,0,7.27-.66,10.29-1.97,3.03-1.31,6.16-3.43,9.39-6.36l13.17,11.66c-3.84,4.75-8.48,8.45-13.93,11.13-5.45,2.67-11.86,4.01-19.23,4.01ZM702.63,260.78c-.71-5.15-2.53-9.31-5.45-12.49-2.93-3.18-6.81-4.77-11.66-4.77s-8.76,1.57-11.73,4.69c-2.98,3.13-4.92,7.32-5.83,12.57h34.67Z"/>
    <path class="cls-1" d="M773.63,309.08c-3.53,0-6.74-.38-9.61-1.14s-5.35-2.09-7.42-4.01c-2.07-1.92-3.69-4.41-4.85-7.49-1.16-3.08-1.74-6.99-1.74-11.73v-38.46h-9.69v-19.68h9.69v-20.74h23.01v20.74h19.08v19.68h-19.08v34.79c0,5.27,2.47,7.9,7.42,7.9,4.04,0,7.82-1.01,11.35-3.03v18.47c-2.42,1.41-5.1,2.55-8.02,3.41-2.93.86-6.31,1.29-10.14,1.29Z"/>
    <path class="cls-1" d="M812.99,226.56h23.01v16.35c2.32-5.55,5.5-9.99,9.54-13.32,4.04-3.33,9.49-4.84,16.35-4.54v24.07h-1.21c-7.67,0-13.7,2.32-18.09,6.96-4.39,4.64-6.59,11.86-6.59,21.65v29.98h-23.01v-81.15Z"/>
    <path class="cls-1" d="M920.04,309.53c-6.26,0-12.06-1.09-17.41-3.26-5.35-2.17-9.97-5.15-13.85-8.93-3.89-3.78-6.94-8.23-9.16-13.32-2.22-5.1-3.33-10.57-3.33-16.43v-.3c0-5.85,1.11-11.33,3.33-16.43,2.22-5.1,5.3-9.56,9.23-13.4,3.94-3.83,8.58-6.86,13.93-9.08,5.35-2.22,11.2-3.33,17.56-3.33s12.06,1.09,17.41,3.26c5.35,2.17,9.97,5.15,13.85,8.93,3.88,3.78,6.94,8.23,9.16,13.32,2.22,5.1,3.33,10.57,3.33,16.43v.3c0,5.85-1.11,11.33-3.33,16.43-2.22,5.1-5.3,9.56-9.24,13.4-3.94,3.84-8.58,6.87-13.93,9.08-5.35,2.22-11.2,3.33-17.56,3.33ZM920.34,289.7c3.33,0,6.28-.58,8.86-1.74,2.57-1.16,4.77-2.75,6.59-4.77,1.82-2.02,3.2-4.36,4.16-7.04.96-2.67,1.44-5.53,1.44-8.55v-.3c0-3.03-.51-5.88-1.51-8.55-1.01-2.67-2.47-5.05-4.39-7.12-1.92-2.07-4.19-3.71-6.81-4.92-2.62-1.21-5.5-1.82-8.63-1.82-3.33,0-6.28.58-8.86,1.74-2.57,1.16-4.77,2.75-6.59,4.77-1.82,2.02-3.21,4.37-4.16,7.04-.96,2.68-1.44,5.53-1.44,8.55v.3c0,3.03.5,5.88,1.51,8.55,1.01,2.68,2.47,5.05,4.39,7.12,1.92,2.07,4.16,3.71,6.74,4.92,2.57,1.21,5.47,1.82,8.71,1.82Z"/>
  </g>
  <g>
    <path class="cls-1" d="M65.54,387.25h-32.25v-21.5h87.81v21.5h-32.25v84.48h-23.32v-84.48Z"/>
    <path class="cls-1" d="M178.94,473.55c-6.06,0-11.68-1.01-16.88-3.03-5.2-2.02-9.69-4.89-13.47-8.63-3.79-3.73-6.74-8.15-8.86-13.25-2.12-5.1-3.18-10.77-3.18-17.03v-.3c0-5.75.98-11.2,2.95-16.35s4.72-9.64,8.25-13.47c3.53-3.83,7.74-6.86,12.64-9.08,4.89-2.22,10.32-3.33,16.28-3.33,6.76,0,12.62,1.21,17.56,3.63s9.06,5.68,12.34,9.77c3.28,4.09,5.7,8.78,7.27,14.08,1.56,5.3,2.35,10.82,2.35,16.58,0,.91-.03,1.87-.08,2.88-.05,1.01-.13,2.07-.23,3.18h-56.47c1.11,5.25,3.41,9.21,6.89,11.88,3.48,2.68,7.8,4.01,12.94,4.01,3.83,0,7.27-.66,10.29-1.97,3.03-1.31,6.16-3.43,9.39-6.36l13.17,11.66c-3.84,4.75-8.48,8.45-13.93,11.13-5.45,2.67-11.86,4.01-19.23,4.01ZM193.77,424.79c-.71-5.15-2.52-9.31-5.45-12.49-2.93-3.18-6.81-4.77-11.66-4.77s-8.76,1.57-11.73,4.69c-2.98,3.13-4.92,7.32-5.83,12.57h34.67Z"/>
    <path class="cls-1" d="M275.68,473.55c-6.06,0-11.68-1.11-16.88-3.33-5.2-2.22-9.67-5.22-13.4-9.01-3.73-3.78-6.66-8.23-8.78-13.32-2.12-5.1-3.18-10.52-3.18-16.28v-.3c0-5.75,1.06-11.2,3.18-16.35,2.12-5.15,5.05-9.64,8.78-13.47,3.73-3.83,8.2-6.86,13.4-9.08,5.2-2.22,10.92-3.33,17.18-3.33,7.67,0,14.03,1.21,19.08,3.63,5.04,2.42,9.49,5.75,13.32,9.99l-14.08,15.14c-2.62-2.73-5.32-4.89-8.1-6.51-2.78-1.61-6.23-2.42-10.37-2.42-2.93,0-5.58.58-7.95,1.74-2.37,1.16-4.44,2.75-6.21,4.77-1.77,2.02-3.13,4.37-4.09,7.04-.96,2.68-1.44,5.53-1.44,8.55v.3c0,3.13.48,6.06,1.44,8.78.96,2.73,2.35,5.1,4.16,7.12,1.82,2.02,3.99,3.61,6.51,4.77,2.52,1.16,5.35,1.74,8.48,1.74,3.83,0,7.19-.78,10.07-2.35,2.88-1.56,5.73-3.66,8.55-6.28l13.47,13.63c-3.94,4.34-8.43,7.9-13.47,10.67-5.05,2.77-11.61,4.16-19.68,4.16Z"/>
    <path class="cls-1" d="M327.76,361.21h23.01v40.97c1.31-1.73,2.75-3.38,4.31-4.96,1.56-1.58,3.3-2.97,5.22-4.19,1.92-1.22,4.04-2.19,6.36-2.9,2.32-.71,4.94-1.07,7.87-1.07,8.78,0,15.57,2.68,20.36,8.02,4.79,5.35,7.19,12.72,7.19,22.1v52.54h-23.01v-45.16c0-5.44-1.21-9.54-3.63-12.31-2.42-2.77-5.85-4.15-10.29-4.15s-7.95,1.39-10.52,4.15c-2.57,2.77-3.86,6.87-3.86,12.31v45.16h-23.01v-110.52Z"/>
    <path class="cls-1" d="M426.17,390.58h23.01v11.6c1.31-1.73,2.75-3.38,4.31-4.96,1.56-1.58,3.3-2.97,5.22-4.19,1.92-1.22,4.04-2.19,6.36-2.9,2.32-.71,4.94-1.07,7.87-1.07,8.78,0,15.57,2.68,20.36,8.02,4.79,5.35,7.19,12.72,7.19,22.1v52.54h-23.01v-45.16c0-5.44-1.21-9.54-3.63-12.31-2.42-2.77-5.86-4.15-10.29-4.15s-7.95,1.39-10.52,4.15c-2.57,2.77-3.86,6.87-3.86,12.31v45.16h-23.01v-81.15Z"/>
    <path class="cls-1" d="M564.39,473.55c-6.26,0-12.06-1.09-17.41-3.26-5.35-2.17-9.97-5.15-13.85-8.93-3.89-3.78-6.94-8.23-9.16-13.32-2.22-5.1-3.33-10.57-3.33-16.43v-.3c0-5.85,1.11-11.33,3.33-16.43,2.22-5.1,5.3-9.56,9.23-13.4,3.94-3.83,8.58-6.86,13.93-9.08,5.35-2.22,11.2-3.33,17.56-3.33s12.06,1.09,17.41,3.26c5.35,2.17,9.97,5.15,13.85,8.93,3.88,3.78,6.94,8.23,9.16,13.32,2.22,5.1,3.33,10.57,3.33,16.43v.3c0,5.85-1.11,11.33-3.33,16.43-2.22,5.1-5.3,9.56-9.24,13.4-3.94,3.84-8.58,6.87-13.93,9.08-5.35,2.22-11.2,3.33-17.56,3.33ZM564.7,453.71c3.33,0,6.28-.58,8.86-1.74,2.57-1.16,4.77-2.75,6.59-4.77,1.82-2.02,3.2-4.36,4.16-7.04.96-2.67,1.44-5.53,1.44-8.55v-.3c0-3.03-.51-5.88-1.51-8.55-1.01-2.67-2.47-5.05-4.39-7.12-1.92-2.07-4.19-3.71-6.81-4.92-2.62-1.21-5.5-1.82-8.63-1.82-3.33,0-6.28.58-8.86,1.74-2.57,1.16-4.77,2.75-6.59,4.77-1.82,2.02-3.21,4.37-4.16,7.04-.96,2.68-1.44,5.53-1.44,8.55v.3c0,3.03.5,5.88,1.51,8.55,1.01,2.68,2.47,5.05,4.39,7.12,1.92,2.07,4.16,3.71,6.74,4.92,2.57,1.21,5.47,1.82,8.71,1.82Z"/>
    <path class="cls-1" d="M630.25,361.21h23.01v110.52h-23.01v-110.52Z"/>
    <path class="cls-1" d="M718.82,473.55c-6.26,0-12.06-1.09-17.41-3.26-5.35-2.17-9.97-5.15-13.85-8.93-3.89-3.78-6.94-8.23-9.16-13.32-2.22-5.1-3.33-10.57-3.33-16.43v-.3c0-5.85,1.11-11.33,3.33-16.43,2.22-5.1,5.3-9.56,9.23-13.4,3.94-3.83,8.58-6.86,13.93-9.08,5.35-2.22,11.2-3.33,17.56-3.33s12.06,1.09,17.41,3.26c5.35,2.17,9.97,5.15,13.85,8.93,3.88,3.78,6.94,8.23,9.16,13.32,2.22,5.1,3.33,10.57,3.33,16.43v.3c0,5.85-1.11,11.33-3.33,16.43-2.22,5.1-5.3,9.56-9.24,13.4-3.94,3.84-8.58,6.87-13.93,9.08-5.35,2.22-11.2,3.33-17.56,3.33ZM719.12,453.71c3.33,0,6.28-.58,8.86-1.74,2.57-1.16,4.77-2.75,6.59-4.77,1.82-2.02,3.2-4.36,4.16-7.04.96-2.67,1.44-5.53,1.44-8.55v-.3c0-3.03-.51-5.88-1.51-8.55-1.01-2.67-2.47-5.05-4.39-7.12-1.92-2.07-4.19-3.71-6.81-4.92-2.62-1.21-5.5-1.82-8.63-1.82-3.33,0-6.28.58-8.86,1.74-2.57,1.16-4.77,2.75-6.59,4.77-1.82,2.02-3.21,4.37-4.16,7.04-.96,2.68-1.44,5.53-1.44,8.55v.3c0,3.03.5,5.88,1.51,8.55,1.01,2.68,2.47,5.05,4.39,7.12,1.92,2.07,4.16,3.71,6.74,4.92,2.57,1.21,5.47,1.82,8.71,1.82Z"/>
    <path class="cls-1" d="M819.95,496.26c-6.66,0-13.02-.73-19.08-2.2-6.06-1.46-11.66-3.56-16.81-6.28l7.87-17.26c4.24,2.32,8.5,4.14,12.79,5.45,4.29,1.31,9.16,1.97,14.61,1.97,7.87,0,13.7-1.87,17.49-5.6s5.68-9.24,5.68-16.5v-3.94c-3.43,4.14-7.17,7.37-11.2,9.69-4.04,2.32-9.14,3.48-15.29,3.48-4.74,0-9.29-.83-13.62-2.5-4.34-1.67-8.18-4.11-11.51-7.34-3.33-3.23-5.98-7.19-7.95-11.89s-2.95-10.07-2.95-16.12v-.3c0-6.06,1.01-11.43,3.03-16.12,2.02-4.69,4.69-8.65,8.02-11.88,3.33-3.23,7.17-5.68,11.51-7.34,4.34-1.67,8.83-2.5,13.47-2.5,6.26,0,11.41,1.16,15.44,3.48,4.04,2.32,7.62,5.2,10.75,8.63v-10.6h23.01v62.83c0,14.44-3.43,25.08-10.29,31.95-3.84,3.83-8.65,6.61-14.46,8.33-5.8,1.71-12.64,2.57-20.51,2.57ZM822.68,445.99c2.82,0,5.45-.45,7.87-1.36s4.52-2.2,6.28-3.86c1.77-1.67,3.15-3.66,4.16-5.98,1.01-2.32,1.51-4.85,1.51-7.57v-.3c0-2.73-.51-5.25-1.51-7.57-1.01-2.32-2.4-4.31-4.16-5.98-1.77-1.67-3.86-2.95-6.28-3.86-2.42-.91-5.05-1.36-7.87-1.36s-5.43.45-7.8,1.36c-2.37.91-4.44,2.2-6.21,3.86-1.77,1.67-3.16,3.66-4.16,5.98-1.01,2.32-1.51,4.84-1.51,7.57v.3c0,5.65,1.87,10.2,5.6,13.63,3.73,3.43,8.43,5.15,14.08,5.15Z"/>
    <path class="cls-1" d="M909.28,496.41c-4.24,0-7.97-.51-11.2-1.51-3.23-1.01-6.31-2.37-9.24-4.09l7.72-16.65c1.51.91,3.15,1.67,4.92,2.27,1.76.61,3.41.91,4.92.91,2.02,0,3.61-.38,4.77-1.14,1.16-.76,2.24-2.15,3.26-4.16l-31.79-81.45h24.38l18.47,55.26,17.71-55.26h23.92l-31.19,83.12c-1.51,4.14-3.13,7.65-4.85,10.52-1.72,2.88-3.61,5.22-5.68,7.04-2.07,1.82-4.42,3.13-7.04,3.94-2.62.81-5.65,1.21-9.08,1.21Z"/>
  </g>
  <g>
    <path class="cls-1" d="M680.07,637.56c-7.57,0-14.59-1.41-21.04-4.24-6.46-2.82-12.04-6.68-16.73-11.58-4.69-4.89-8.35-10.67-10.98-17.33-2.63-6.66-3.94-13.78-3.94-21.35v-.3c0-7.47,1.34-14.53,4.01-21.2,2.67-6.66,6.36-12.49,11.05-17.49s10.27-8.93,16.73-11.81c6.46-2.88,13.52-4.32,21.2-4.32,4.74,0,9.03.4,12.87,1.21,3.84.81,7.39,1.97,10.67,3.48,3.28,1.51,6.36,3.31,9.24,5.38,2.88,2.07,5.68,4.37,8.4,6.89l-5.6,5.75c-2.32-2.22-4.75-4.29-7.27-6.21-2.52-1.92-5.22-3.56-8.1-4.92s-6.01-2.45-9.39-3.25c-3.38-.81-7.04-1.21-10.98-1.21-6.36,0-12.26,1.21-17.71,3.63-5.45,2.42-10.17,5.78-14.15,10.07-3.99,4.29-7.12,9.31-9.39,15.06-2.27,5.75-3.41,11.96-3.41,18.62v.3c0,6.66,1.16,12.9,3.48,18.7,2.32,5.8,5.47,10.85,9.46,15.14,3.99,4.29,8.71,7.67,14.16,10.14,5.45,2.47,11.36,3.71,17.71,3.71,7.67,0,14.33-1.41,19.99-4.24,5.65-2.82,11.15-6.91,16.5-12.26l5.3,5.15c-2.83,2.73-5.73,5.22-8.71,7.49-2.98,2.27-6.16,4.22-9.54,5.83-3.38,1.62-7.04,2.88-10.98,3.79-3.94.91-8.23,1.36-12.87,1.36Z"/>
    <path class="cls-1" d="M747.29,525.22h7.42v110.52h-7.42v-110.52Z"/>
    <path class="cls-1" d="M817.24,637.56c-4.84,0-9.19-.78-13.02-2.35-3.84-1.56-7.09-3.76-9.77-6.59-2.68-2.82-4.69-6.18-6.06-10.07-1.36-3.88-2.04-8.15-2.04-12.79v-47.24h7.42v45.87c0,7.97,2.12,14.36,6.36,19.15,4.24,4.79,10.29,7.19,18.17,7.19,3.73,0,7.24-.68,10.52-2.04,3.28-1.36,6.13-3.25,8.55-5.68,2.42-2.42,4.31-5.32,5.68-8.71,1.36-3.38,2.04-7.09,2.04-11.13v-44.66h7.42v77.21h-7.42v-14.38c-2.62,4.54-6.16,8.38-10.6,11.51-4.44,3.13-10.2,4.69-17.26,4.69Z"/>
    <path class="cls-1" d="M923.97,637.56c-3.84,0-7.37-.51-10.6-1.51-3.23-1.01-6.13-2.37-8.71-4.09-2.57-1.71-4.9-3.68-6.96-5.9-2.07-2.22-3.91-4.54-5.53-6.96v16.65h-7.42v-110.52h7.42v50.57c1.61-2.52,3.48-4.94,5.6-7.27,2.12-2.32,4.46-4.34,7.04-6.06,2.57-1.71,5.45-3.1,8.63-4.16,3.18-1.06,6.69-1.59,10.52-1.59,4.64,0,9.21.91,13.7,2.73,4.49,1.82,8.5,4.44,12.04,7.87,3.53,3.43,6.38,7.65,8.55,12.64,2.17,5,3.25,10.62,3.25,16.88v.3c0,6.26-1.09,11.89-3.25,16.88-2.17,5-5.02,9.24-8.55,12.72-3.54,3.48-7.55,6.16-12.04,8.02-4.49,1.87-9.06,2.8-13.7,2.8ZM923.29,630.45c4.25,0,8.22-.76,11.91-2.27,3.69-1.51,6.91-3.68,9.64-6.51,2.73-2.82,4.88-6.28,6.45-10.37s2.35-8.71,2.35-13.85v-.3c0-5.05-.81-9.64-2.43-13.78-1.62-4.14-3.82-7.65-6.6-10.52-2.78-2.88-6.02-5.1-9.71-6.66-3.69-1.56-7.56-2.35-11.61-2.35s-7.97.81-11.77,2.42c-3.79,1.62-7.16,3.89-10.09,6.81-2.94,2.93-5.29,6.41-7.06,10.45-1.77,4.04-2.65,8.53-2.65,13.47v.3c0,4.95.88,9.46,2.65,13.55s4.12,7.57,7.06,10.45c2.93,2.88,6.3,5.12,10.09,6.74,3.79,1.62,7.71,2.42,11.77,2.42Z"/>
  </g>
</svg>